<svg width="20" height="20" viewBox="0 0 20 20" fill="none" xmlns="http://www.w3.org/2000/svg">
<g clip-path="url(#clip0_3036_35247)">
<path d="M11.2493 20.0001C11.1388 20.0001 11.0329 19.9562 10.9547 19.8781C10.8766 19.7999 10.8327 19.694 10.8327 19.5835V1.01179L2.49935 4.04263V19.5835C2.49935 19.694 2.45545 19.7999 2.37731 19.8781C2.29917 19.9562 2.19319 20.0001 2.08268 20.0001C1.97218 20.0001 1.86619 19.9562 1.78805 19.8781C1.70991 19.7999 1.66602 19.694 1.66602 19.5835V3.75013C1.66599 3.66459 1.69229 3.58113 1.74134 3.51106C1.79038 3.44099 1.85981 3.38771 1.94018 3.35846L11.1068 0.0251251C11.1698 0.00221333 11.2374 -0.00518078 11.3038 0.00356968C11.3702 0.0123201 11.4335 0.0369571 11.4884 0.0753918C11.5433 0.113827 11.5881 0.164926 11.619 0.224357C11.6499 0.283788 11.666 0.349798 11.666 0.416792V19.5835C11.666 19.694 11.6221 19.7999 11.544 19.8781C11.4658 19.9562 11.3599 20.0001 11.2493 20.0001ZM18.7493 20.0001C18.6388 20.0001 18.5329 19.9562 18.4547 19.8781C18.3766 19.7999 18.3327 19.694 18.3327 19.5835V8.19179L12.7518 5.80013C12.6502 5.7567 12.5699 5.67466 12.5288 5.57206C12.4876 5.46946 12.4888 5.35471 12.5323 5.25304C12.5757 5.15138 12.6577 5.07113 12.7603 5.02995C12.8629 4.98877 12.9777 4.99003 13.0793 5.03346L18.9127 7.53346C18.9878 7.56548 19.0519 7.61889 19.097 7.68705C19.142 7.7552 19.166 7.8351 19.166 7.91679V19.5835C19.166 19.694 19.1221 19.7999 19.044 19.8781C18.9658 19.9562 18.8599 20.0001 18.7493 20.0001Z" fill="black" stroke="black" stroke-width="0.2"/>
<path d="M4.58333 7.5C4.47283 7.5 4.36685 7.4561 4.28871 7.37796C4.21057 7.29982 4.16667 7.19384 4.16667 7.08333V5.41667C4.16667 5.30616 4.21057 5.20018 4.28871 5.12204C4.36685 5.0439 4.47283 5 4.58333 5C4.69384 5 4.79982 5.0439 4.87796 5.12204C4.9561 5.20018 5 5.30616 5 5.41667V7.08333C5 7.19384 4.9561 7.29982 4.87796 7.37796C4.79982 7.4561 4.69384 7.5 4.58333 7.5ZM8.75 7.5C8.63949 7.5 8.53351 7.4561 8.45537 7.37796C8.37723 7.29982 8.33333 7.19384 8.33333 7.08333V5.41667C8.33333 5.30616 8.37723 5.20018 8.45537 5.12204C8.53351 5.0439 8.63949 5 8.75 5C8.86051 5 8.96649 5.0439 9.04463 5.12204C9.12277 5.20018 9.16667 5.30616 9.16667 5.41667V7.08333C9.16667 7.19384 9.12277 7.29982 9.04463 7.37796C8.96649 7.4561 8.86051 7.5 8.75 7.5ZM4.58333 12.5C4.47283 12.5 4.36685 12.4561 4.28871 12.378C4.21057 12.2998 4.16667 12.1938 4.16667 12.0833V10.4167C4.16667 10.3062 4.21057 10.2002 4.28871 10.122C4.36685 10.0439 4.47283 10 4.58333 10C4.69384 10 4.79982 10.0439 4.87796 10.122C4.9561 10.2002 5 10.3062 5 10.4167V12.0833C5 12.1938 4.9561 12.2998 4.87796 12.378C4.79982 12.4561 4.69384 12.5 4.58333 12.5ZM8.75 12.5C8.63949 12.5 8.53351 12.4561 8.45537 12.378C8.37723 12.2998 8.33333 12.1938 8.33333 12.0833V10.4167C8.33333 10.3062 8.37723 10.2002 8.45537 10.122C8.53351 10.0439 8.63949 10 8.75 10C8.86051 10 8.96649 10.0439 9.04463 10.122C9.12277 10.2002 9.16667 10.3062 9.16667 10.4167V12.0833C9.16667 12.1938 9.12277 12.2998 9.04463 12.378C8.96649 12.4561 8.86051 12.5 8.75 12.5ZM4.58333 17.5C4.47283 17.5 4.36685 17.4561 4.28871 17.378C4.21057 17.2998 4.16667 17.1938 4.16667 17.0833V15.4167C4.16667 15.3062 4.21057 15.2002 4.28871 15.122C4.36685 15.0439 4.47283 15 4.58333 15C4.69384 15 4.79982 15.0439 4.87796 15.122C4.9561 15.2002 5 15.3062 5 15.4167V17.0833C5 17.1938 4.9561 17.2998 4.87796 17.378C4.79982 17.4561 4.69384 17.5 4.58333 17.5ZM8.75 17.5C8.63949 17.5 8.53351 17.4561 8.45537 17.378C8.37723 17.2998 8.33333 17.1938 8.33333 17.0833V15.4167C8.33333 15.3062 8.37723 15.2002 8.45537 15.122C8.53351 15.0439 8.63949 15 8.75 15C8.86051 15 8.96649 15.0439 9.04463 15.122C9.12277 15.2002 9.16667 15.3062 9.16667 15.4167V17.0833C9.16667 17.1938 9.12277 17.2998 9.04463 17.378C8.96649 17.4561 8.86051 17.5 8.75 17.5ZM13.75 12.5C13.6395 12.5 13.5335 12.4561 13.4554 12.378C13.3772 12.2998 13.3333 12.1938 13.3333 12.0833V10.4167C13.3333 10.3062 13.3772 10.2002 13.4554 10.122C13.5335 10.0439 13.6395 10 13.75 10C13.8605 10 13.9665 10.0439 14.0446 10.122C14.1228 10.2002 14.1667 10.3062 14.1667 10.4167V12.0833C14.1667 12.1938 14.1228 12.2998 14.0446 12.378C13.9665 12.4561 13.8605 12.5 13.75 12.5ZM16.25 12.5C16.1395 12.5 16.0335 12.4561 15.9554 12.378C15.8772 12.2998 15.8333 12.1938 15.8333 12.0833V10.4167C15.8333 10.3062 15.8772 10.2002 15.9554 10.122C16.0335 10.0439 16.1395 10 16.25 10C16.3605 10 16.4665 10.0439 16.5446 10.122C16.6228 10.2002 16.6667 10.3062 16.6667 10.4167V12.0833C16.6667 12.1938 16.6228 12.2998 16.5446 12.378C16.4665 12.4561 16.3605 12.5 16.25 12.5ZM13.75 17.5C13.6395 17.5 13.5335 17.4561 13.4554 17.378C13.3772 17.2998 13.3333 17.1938 13.3333 17.0833V15.4167C13.3333 15.3062 13.3772 15.2002 13.4554 15.122C13.5335 15.0439 13.6395 15 13.75 15C13.8605 15 13.9665 15.0439 14.0446 15.122C14.1228 15.2002 14.1667 15.3062 14.1667 15.4167V17.0833C14.1667 17.1938 14.1228 17.2998 14.0446 17.378C13.9665 17.4561 13.8605 17.5 13.75 17.5ZM16.25 17.5C16.1395 17.5 16.0335 17.4561 15.9554 17.378C15.8772 17.2998 15.8333 17.1938 15.8333 17.0833V15.4167C15.8333 15.3062 15.8772 15.2002 15.9554 15.122C16.0335 15.0439 16.1395 15 16.25 15C16.3605 15 16.4665 15.0439 16.5446 15.122C16.6228 15.2002 16.6667 15.3062 16.6667 15.4167V17.0833C16.6667 17.1938 16.6228 17.2998 16.5446 17.378C16.4665 17.4561 16.3605 17.5 16.25 17.5ZM19.5833 20H0.416667C0.30616 20 0.200179 19.9561 0.122039 19.878C0.0438987 19.7998 0 19.6938 0 19.5833C0 19.4728 0.0438987 19.3668 0.122039 19.2887C0.200179 19.2106 0.30616 19.1667 0.416667 19.1667H19.5833C19.6938 19.1667 19.7998 19.2106 19.878 19.2887C19.9561 19.3668 20 19.4728 20 19.5833C20 19.6938 19.9561 19.7998 19.878 19.878C19.7998 19.9561 19.6938 20 19.5833 20Z" fill="black" stroke="black" stroke-width="0.2"/>
</g>
<defs>
<clipPath id="clip0_3036_35247">
<rect width="20" height="20" fill="white"/>
</clipPath>
</defs>
</svg>
