<svg width="53" height="53" viewBox="0 0 53 53" fill="none" xmlns="http://www.w3.org/2000/svg">
<path d="M48.0321 24.2917V37.5417C48.1618 38.6605 48.0368 39.7943 47.6665 40.858C47.2962 41.9217 46.6901 42.888 45.8936 43.6845C45.0972 44.4809 44.1309 45.087 43.0672 45.4573C42.0034 45.8276 40.8697 45.9526 39.7509 45.8229H13.2509C12.132 45.9526 10.9983 45.8276 9.93452 45.4573C8.87077 45.087 7.90453 44.4809 7.10807 43.6845C6.31161 42.888 5.70555 41.9217 5.33523 40.858C4.96491 39.7943 4.83992 38.6605 4.9696 37.5417V15.4583C4.83992 14.3395 4.96491 13.2057 5.33523 12.142C5.70555 11.0783 6.31161 10.112 7.10807 9.31555C7.90453 8.51909 8.87077 7.91303 9.93452 7.54271C10.9983 7.17239 12.132 7.0474 13.2509 7.17708H28.7092C29.1485 7.17708 29.5697 7.35158 29.8803 7.66219C30.1909 7.97279 30.3654 8.39407 30.3654 8.83333C30.3654 9.2726 30.1909 9.69387 29.8803 10.0045C29.5697 10.3151 29.1485 10.4896 28.7092 10.4896H13.2509C9.76831 10.4896 8.2821 11.9758 8.2821 15.4583V35.8854L13.8913 30.2762C14.3082 29.8625 14.8718 29.6303 15.4592 29.6303C16.0466 29.6303 16.6102 29.8625 17.0271 30.2762L19.1029 32.3521C19.3093 32.5544 19.5868 32.6677 19.8759 32.6677C20.1649 32.6677 20.4424 32.5544 20.6488 32.3521L31.5579 21.4429C31.9749 21.0292 32.5385 20.797 33.1259 20.797C33.7132 20.797 34.2768 21.0292 34.6938 21.4429L44.7196 31.4688V24.2917C44.7196 23.8524 44.8941 23.4311 45.2047 23.1205C45.5153 22.8099 45.9366 22.6354 46.3759 22.6354C46.8151 22.6354 47.2364 22.8099 47.547 23.1205C47.8576 23.4311 48.0321 23.8524 48.0321 24.2917ZM17.6521 17.1146C16.9189 17.1166 16.2165 17.4096 15.6991 17.9291C15.1817 18.4487 14.8917 19.1523 14.8928 19.8855C14.8938 20.6187 15.1858 21.3215 15.7046 21.8396C16.2234 22.3577 16.9266 22.6487 17.6598 22.6487C18.393 22.6487 19.0962 22.3577 19.615 21.8396C20.1338 21.3215 20.4258 20.6187 20.4268 19.8855C20.4279 19.1523 20.1378 18.4487 19.6205 17.9291C19.1031 17.4096 18.4007 17.1166 17.6675 17.1146H17.6521ZM37.5425 12.6979H40.3029V15.4583C40.3029 15.8976 40.4774 16.3189 40.788 16.6295C41.0986 16.9401 41.5199 17.1146 41.9592 17.1146C42.3984 17.1146 42.8197 16.9401 43.1303 16.6295C43.4409 16.3189 43.6154 15.8976 43.6154 15.4583V12.6979H46.3759C46.8151 12.6979 47.2364 12.5234 47.547 12.2128C47.8576 11.9022 48.0321 11.4809 48.0321 11.0417C48.0321 10.6024 47.8576 10.1811 47.547 9.87052C47.2364 9.55991 46.8151 9.38542 46.3759 9.38542H43.6154V6.625C43.6154 6.18574 43.4409 5.76446 43.1303 5.45385C42.8197 5.14325 42.3984 4.96875 41.9592 4.96875C41.5199 4.96875 41.0986 5.14325 40.788 5.45385C40.4774 5.76446 40.3029 6.18574 40.3029 6.625V9.38542H37.5425C37.1033 9.38542 36.682 9.55991 36.3714 9.87052C36.0608 10.1811 35.8863 10.6024 35.8863 11.0417C35.8863 11.4809 36.0608 11.9022 36.3714 12.2128C36.682 12.5234 37.1033 12.6979 37.5425 12.6979Z" fill="white"/>
</svg>
