<svg width="1037" height="1080" viewBox="0 0 1037 1080" fill="none" xmlns="http://www.w3.org/2000/svg">
<path d="M951.758 -33.1164C950.23 -30.469 948.913 -27.5816 947.333 -24.8458C929.455 6.09328 900.119 28.722 865.776 38.0643C831.432 47.4066 794.894 42.6977 764.194 24.9731C761.83 23.6084 759.466 22.2436 757.273 20.6835L752.968 28.1406C755.288 29.4801 757.779 30.6242 760.143 31.989C790.85 49.7179 813.201 79.017 822.278 113.441C831.355 147.864 826.414 184.593 808.543 215.546C806.963 218.282 805.409 220.974 803.593 223.514L813.179 229.049C814.733 226.357 816.025 223.514 817.604 220.778C835.493 189.927 864.784 167.368 899.06 158.044C933.336 148.72 969.801 153.391 1000.47 171.034C1002.87 172.424 1005.19 173.764 1007.39 175.324L1011.74 167.779C1009.42 166.439 1006.98 165.32 1004.57 163.93C973.869 146.206 951.521 116.917 942.44 82.5031C933.359 48.0897 938.288 11.3695 956.143 -19.583C957.723 -22.3188 959.302 -25.0545 961.093 -27.5503L951.758 -33.1164Z" fill="white"/>
<path d="M629.205 -272.763C592.458 -260.279 557.116 -243.9 523.78 -223.907C521.976 -223.163 520.291 -222.153 518.781 -220.909C482.118 -198.368 448.231 -171.539 417.835 -140.991C416.887 -140.203 416.012 -139.33 415.22 -138.383C382.941 -105.449 354.948 -68.5476 331.917 -28.5699C331.178 -27.2903 330.414 -25.9666 329.675 -24.6869C329.369 -24.1574 329.038 -23.5838 328.733 -23.0544C303.715 21.4051 285.006 69.1235 273.151 118.708C272.669 120.114 272.356 121.573 272.218 123.052C263.448 160.844 258.771 199.45 258.269 238.195C257.383 322.872 276.095 406.462 312.932 482.378C289.332 500.03 271.326 524.175 261.119 551.854C250.912 579.533 248.948 609.545 255.467 638.212C261.986 666.879 276.705 692.957 297.821 713.25C318.937 733.544 345.533 747.172 374.351 752.465C427.851 762.408 501.828 713.634 548.172 677.439C546.746 687.088 545.407 697.493 544.354 708.416C536.774 783.818 545.022 836.353 568.81 864.5C587.751 886.896 612.83 903.208 640.97 911.435C669.109 919.663 699.086 919.448 727.221 910.817C755.357 902.187 780.428 885.515 799.36 862.848C818.291 840.182 830.258 812.506 833.794 783.215C918.033 777.155 999.851 751.521 1072.78 708.337C1106.14 688.439 1137.29 664.997 1165.68 638.421C1166.76 637.63 1167.75 636.724 1168.64 635.718C1205.82 600.533 1237.93 560.308 1264.01 516.223L1264.62 515.164C1265.41 513.796 1266.2 512.428 1267.02 511.016C1290.3 471.133 1308.45 428.475 1321.05 384.069C1321.41 383.037 1321.69 381.979 1321.89 380.903C1333.2 339.225 1339.51 296.368 1340.66 253.251C1341.03 251.355 1341.11 249.415 1340.89 247.5C1341.41 208.687 1337.82 169.958 1330.21 131.959C1330.12 129.859 1329.7 127.788 1328.96 125.828C1321.63 91.109 1310.97 57.2087 1297.11 24.6023C1296.59 22.5673 1295.73 20.6382 1294.57 18.898C1281.35 -11.3247 1265.38 -40.2408 1246.85 -67.4834C1246.12 -68.9003 1245.22 -70.2155 1244.15 -71.3965C1226.36 -97.0997 1206.36 -121.184 1184.39 -143.378C1183.66 -144.21 1182.89 -144.993 1182.06 -145.72C1160.36 -167.31 1136.84 -186.987 1111.78 -204.537L1111.17 -204.891C1098.7 -213.62 1085.39 -222.123 1071.78 -229.983C1058.17 -237.843 1044.33 -245.009 1030.36 -251.545L1029.7 -251.924C1002.05 -264.833 973.337 -275.331 943.868 -283.3C942.607 -283.782 941.298 -284.123 939.962 -284.32C909.925 -292.214 879.239 -297.449 848.256 -299.966C846.673 -300.315 845.051 -300.461 843.429 -300.4C810.6 -302.762 777.605 -302.12 744.851 -298.481C742.739 -298.581 740.624 -298.331 738.588 -297.743C703.549 -293.55 668.973 -285.968 635.342 -275.103C633.181 -274.679 631.105 -273.888 629.205 -272.763ZM826.478 -262.649L840.301 -126.765C834.167 -125.541 828.062 -124.065 822.055 -122.356L770.684 -262.15C789.289 -263.389 807.941 -263.6 826.555 -262.782L826.478 -262.649ZM915.366 -250.513L897.32 -130.498C891.06 -130.877 884.786 -131.028 878.559 -130.858L865.538 -259.336C882.245 -257.339 898.879 -254.442 915.442 -250.645L915.366 -250.513ZM997.286 -223.984L953.41 -119.883C947.407 -121.819 941.364 -123.484 935.282 -124.878L952.643 -240.169C967.767 -235.634 982.674 -230.283 997.363 -224.116L997.286 -223.984ZM1140.48 -132.132L1049.32 -59.4516C1045.07 -64.0223 1040.61 -68.423 1035.93 -72.6535L1104.14 -162.702C1116.7 -152.981 1128.81 -142.791 1140.48 -132.132ZM1200.53 -66.1046L1082.75 -13.1418C1079.79 -18.6195 1076.52 -23.9777 1073.13 -29.2287L1167.98 -104.845C1179.46 -92.4501 1190.28 -79.5536 1200.44 -66.1552L1200.53 -66.1046ZM1250.32 14.7663L1103.61 40.2004C1102.04 34.1186 1100.27 28.0935 1098.26 22.169L1222.93 -33.9341C1232.91 -18.2378 1242.03 -1.9967 1250.23 14.7158L1250.32 14.7663ZM1302.02 222.938L1103.4 153.982C1104.95 147.872 1106.29 141.705 1107.36 135.5L1294.65 150.675C1298.83 174.542 1301.29 198.692 1302.02 222.938ZM1290.7 346.252L1082.12 207.528C1085.28 202.057 1088 196.333 1090.54 190.621L1301.66 263.796C1300.26 291.52 1296.6 319.099 1290.7 346.252ZM830.783 729.292C825.266 706.69 814.64 685.7 799.725 667.942C791.576 658.624 781.88 650.797 771.061 644.803C759.34 638.177 746.963 632.786 734.124 628.714C699.178 618.231 663.128 611.787 626.673 609.507C668.933 575.838 726.085 538.412 763.833 538.437C766.451 538.413 769.065 538.623 771.643 539.063C789.21 542.228 805.747 549.546 819.891 560.412C834.035 571.278 845.38 585.383 852.991 601.562C862.763 622.48 865.873 645.952 861.9 668.8C857.928 691.647 847.065 712.765 830.783 729.292ZM685.989 735.945C656.487 710.617 629.435 673.465 612.172 647.26C642.229 649.082 685.997 653.642 721.711 665.378C744.482 672.642 761.16 682.271 770.016 692.914C784.487 709.899 793.556 730.867 796.063 753.136C775.567 762.151 752.909 764.877 730.958 760.967C717.934 758.86 702.905 750.418 685.989 735.945ZM397.362 401.75C420.165 382.331 449.654 372.747 479.344 375.105C509.033 377.462 536.494 391.569 555.687 414.322C557.311 416.264 558.766 418.344 560.035 420.539L560.506 421.34C578.263 452.655 575.618 519.61 567.213 575.414C543.078 539.476 505.391 491.125 464.462 467.494C454.164 461.301 442.881 456.915 431.094 454.525C407.974 450.207 384.128 451.436 361.494 458.113C367.512 436.15 380.02 416.495 397.362 401.75ZM529.262 -182.147L698.192 -35.9015C694.558 -30.8216 691.049 -25.5522 687.759 -20.1566L463.373 -131.409C483.925 -150.097 505.963 -167.067 529.262 -182.147ZM434.148 -102.627L670.568 14.5725C668.197 20.4989 666.121 26.4193 664.29 32.4219L376.494 -27.8374C393.345 -54.512 412.648 -79.5524 434.148 -102.627ZM356.084 7.2102L655.983 70.1623C655.18 76.4057 654.603 82.6618 654.365 88.9372L316.71 104.321C326.472 70.6965 339.667 38.1531 356.084 7.2102ZM709.113 248.155L578.556 381.989C561.621 364.246 540.551 351.011 517.222 343.459L697.476 233.435C701.148 238.497 705.01 243.433 709.113 248.155ZM801.845 312.873L748.972 500.793C715.199 505.71 677.373 525.937 644.551 548.112L784.667 305.425C790.321 308.572 796.214 310.798 801.845 312.873ZM611.003 529.39C613.865 489.859 612.425 446.962 599.837 414.985L736.315 275.039C741.103 278.979 746.079 282.794 751.296 286.394L611.003 529.39ZM423.79 492.55C447.828 497.014 479.638 523.499 513.31 567.179C524.024 581.072 533.433 594.8 540.853 606.614C526.977 605.78 510.165 604.369 492.626 601.892C438.137 593.965 399.295 579.659 383.487 560.942C369.159 543.765 360.318 522.635 358.102 500.279C378.769 491.123 401.665 488.429 423.79 492.55ZM827.015 518.671C814.961 511.72 801.991 506.489 788.479 503.129L839.097 323.26C845.263 324.408 851.469 325.285 857.689 325.934L852.43 537.227C844.642 530.153 836.123 523.933 827.015 518.671ZM1019.66 280.131L1224.3 508.476C1205.65 538.138 1184.01 565.803 1159.71 591.029L1004.19 290.85C1009.44 287.525 1014.65 283.948 1019.66 280.131ZM1048.36 254.168C1052.65 249.58 1056.76 244.778 1060.68 239.806L1280.35 385.926C1271.14 416.025 1259.17 445.218 1244.59 473.125L1048.36 254.168ZM1046.36 192.645C1027.49 225.328 999.426 251.726 965.723 268.501C932.02 285.275 894.189 291.674 857.013 286.886C819.837 282.099 784.986 266.341 756.867 241.605C728.748 216.869 708.624 184.266 699.04 147.919C689.456 111.572 690.843 73.1136 703.024 37.4067C715.206 1.69977 737.635 -29.6516 767.476 -52.683C797.317 -75.7144 833.229 -89.3914 870.671 -91.9842C908.113 -94.5772 945.404 -85.9697 977.827 -67.2501C1021.26 -42.1095 1052.87 -0.626153 1065.72 48.0977C1078.57 96.8216 1071.6 148.806 1046.36 192.645ZM723.533 -65.337L564.56 -202.951C585.906 -214.413 608.034 -224.327 630.773 -232.616L737.559 -78.0066C732.671 -73.8867 727.958 -69.6656 723.533 -65.337ZM307.198 143.542L656.114 127.659C656.849 133.967 657.869 140.086 659.159 146.243L297.323 257.39C297.135 251.045 297.059 244.706 297.122 238.329C297.48 206.505 300.854 174.766 307.198 143.542ZM299.751 296.857L669.98 183.202C672.396 189.127 674.913 194.875 677.558 200.403L453.63 337.044C427.112 340.015 401.804 349.988 380.287 365.946C358.77 381.904 341.813 403.276 331.146 427.883C314.925 385.84 304.368 341.778 299.751 296.857ZM381.586 714.458C361.547 710.758 342.929 701.639 327.731 688.081C312.533 674.523 301.33 657.039 295.325 637.507C289.32 617.974 288.74 597.131 293.647 577.217C298.555 557.303 308.764 539.07 323.179 524.476C328.642 547.098 339.274 568.1 354.237 585.827C389.351 627.515 473.08 640.498 527.727 644.514C479.718 682.277 416.7 720.965 381.586 714.458ZM756.574 852.063C745.284 861.678 732.233 868.978 718.167 873.548C704.101 878.118 689.295 879.867 674.595 878.695C659.895 877.524 645.589 873.454 632.494 866.72C619.399 859.986 607.771 850.718 598.275 839.446C581.919 820.06 576.365 774.788 582.67 712.006C583.745 700.036 585.334 688.893 586.84 678.702C605.472 705.873 632.022 740.558 661.005 765.469C682.993 784.4 704.125 795.718 723.866 799.232C746.714 803.292 770.223 802.008 792.569 795.479C786.537 817.528 773.983 837.262 756.574 852.063ZM871.881 740.194C887.851 718.755 897.918 693.496 901.061 666.978C904.204 640.461 900.31 613.629 889.775 589.205L896.174 326.503C902.284 326.03 908.521 325.336 914.86 324.466L1000.3 695.492C1000.75 697.595 1001.57 699.6 1002.71 701.417C960.994 720.173 916.988 733.216 871.881 740.194ZM1053.71 675.262C1048.31 678.442 1042.88 681.483 1037.43 684.454L952.139 315.396C958.116 313.434 964.02 311.194 969.8 308.766L1130.46 618.852C1106.71 640.064 1081.01 658.953 1053.71 675.262ZM1285.99 111.196L1110.54 97.0354C1110.56 90.7472 1110.27 84.4649 1109.76 78.1698L1266.38 50.9292C1274.18 70.5753 1280.72 90.704 1285.99 111.196ZM1072.32 -184.608L1005.21 -95.9772C1002.5 -97.5441 999.826 -99.0858 997.112 -100.653C994.398 -102.22 991.684 -103.787 988.97 -105.353L1032.32 -207.638C1039.16 -204.106 1045.74 -200.542 1052.7 -196.523C1059.66 -192.505 1065.86 -188.689 1072.36 -184.583L1072.32 -184.608ZM731.089 -258.065L785.852 -108.781C780.197 -106.163 774.564 -103.179 769.124 -100.025L669.139 -244.883C689.509 -250.507 710.196 -254.871 731.082 -257.952L731.089 -258.065Z" fill="white"/>
</svg>
