<svg width="57" height="48" viewBox="0 0 57 48" fill="none" xmlns="http://www.w3.org/2000/svg">
<path d="M28.6221 21.5666C28.6221 21.4991 28.6154 21.4295 28.6154 21.3598C28.6157 20.5717 28.9268 19.816 29.4802 19.2588C30.0336 18.7017 30.784 18.3887 31.5665 18.3887C31.6267 18.3887 31.687 18.3887 31.7461 18.3943V18.2044C31.687 18.2044 31.6267 18.21 31.5665 18.21C30.7838 18.21 30.0332 17.8968 29.4798 17.3394C28.9264 16.782 28.6154 16.026 28.6154 15.2377C28.6154 15.1681 28.6154 15.0995 28.6221 15.031H28.3778C28.3778 15.0995 28.3845 15.1681 28.3845 15.2377C28.383 16.0243 28.0721 16.7782 27.5198 17.3342C26.9675 17.8903 26.2189 18.2032 25.4379 18.2044C25.3766 18.2044 25.3174 18.2044 25.2583 18.1988V18.3909C25.3174 18.3909 25.3766 18.3853 25.4379 18.3853C26.2204 18.3853 26.9708 18.6983 27.5242 19.2555C28.0776 19.8126 28.3887 20.5683 28.389 21.3564C28.389 21.4261 28.389 21.4958 28.3823 21.5632L28.6221 21.5666Z" fill="black"/>
<path d="M37.4329 22.5869C37.9975 21.9432 38.4924 21.2407 38.9089 20.4912C38.9352 20.4571 38.9563 20.4192 38.9714 20.3788C39.4235 19.5439 39.7752 18.6578 40.0191 17.7392C40.0285 17.7136 40.0356 17.6873 40.0403 17.6605C40.2938 16.6755 40.4217 15.662 40.4207 14.6444C40.4207 14.6118 40.4207 14.5781 40.4207 14.5455C40.4207 14.532 40.4207 14.5174 40.4207 14.5039C40.4083 13.3789 40.2393 12.2611 39.9186 11.1833C39.9123 11.1511 39.9022 11.1198 39.8885 11.0901C39.6391 10.2715 39.3024 9.48255 38.8844 8.73698C37.9668 7.10986 36.6866 5.71962 35.1446 4.67583C35.4009 4.07842 35.4786 3.41868 35.3682 2.77745C35.2579 2.13621 34.9642 1.54132 34.5232 1.06566C34.0822 0.590005 33.513 0.25423 32.8854 0.0994778C32.2578 -0.0552748 31.599 -0.0222856 30.9897 0.194404C29.8573 0.594451 28.9814 2.34185 28.495 3.54423C28.4158 3.34421 28.3265 3.1307 28.2261 2.91045C27.5388 1.38668 26.8014 0.474212 26.036 0.198899C25.4267 -0.0199807 24.7673 -0.0549868 24.1386 0.0981752C23.5099 0.251337 22.9392 0.586006 22.4967 1.06112C22.0541 1.53624 21.7588 2.13114 21.6471 2.77284C21.5354 3.41455 21.6121 4.07514 21.8677 4.67358C20.3243 5.71829 19.0432 7.11015 18.1257 8.73922C17.7076 9.48715 17.371 10.2783 17.1215 11.0991C17.1096 11.1261 17.1006 11.1543 17.0948 11.1833C16.7723 12.2654 16.6026 13.3877 16.5905 14.5174V14.5444C16.5905 14.5792 16.5905 14.6141 16.5905 14.65C16.5856 15.6685 16.7093 16.6835 16.9587 17.6706C16.9631 17.6943 16.9694 17.7176 16.9776 17.7403C17.2213 18.6612 17.5737 19.5493 18.0275 20.3855C18.0414 20.4258 18.0614 20.4637 18.0866 20.4979C18.5051 21.2449 19.001 21.9452 19.566 22.5869C19.5908 22.6261 19.6217 22.661 19.6575 22.6903C20.1807 23.2726 20.7588 23.8025 21.3835 24.2725C21.4159 24.3057 21.4536 24.333 21.4951 24.3534C22.0813 24.7849 22.7058 25.1611 23.3605 25.4771C23.3901 25.4962 23.422 25.5113 23.4554 25.5221C24.0792 25.8168 24.7272 26.0563 25.3922 26.2379C25.4152 26.2458 25.4387 26.2522 25.4625 26.257C26.1157 26.43 26.7823 26.5466 27.4552 26.6054H27.4708C27.8055 26.6346 28.1536 26.6503 28.5006 26.6503C28.8476 26.6503 29.1912 26.6346 29.5304 26.6054H29.5471C30.2181 26.547 30.8829 26.4309 31.5342 26.2581C31.5636 26.2534 31.5924 26.2455 31.6201 26.2345C32.2814 26.0541 32.9257 25.8157 33.5458 25.5221C33.5799 25.5113 33.6125 25.4962 33.6428 25.4771C34.2964 25.1602 34.9201 24.7841 35.506 24.3534C35.5475 24.332 35.5852 24.3039 35.6176 24.2703C36.2411 23.8038 36.8184 23.2777 37.3414 22.6993C37.378 22.6674 37.4089 22.6293 37.4329 22.5869ZM33.5502 24.5692L31.7863 22.1262C31.8901 22.0352 31.9905 21.9396 32.0864 21.8408L34.6113 23.9444C34.2693 24.1732 33.9151 24.3829 33.5502 24.5725V24.5692ZM31.7171 25.3176L30.7375 22.8263C30.8614 22.7645 30.983 22.6982 31.1001 22.6262L32.767 24.9366C32.4256 25.0827 32.0756 25.2108 31.7171 25.3209V25.3176ZM29.8584 25.7142L29.5482 23.242C29.6843 23.2128 29.8182 23.178 29.9499 23.1375L30.8904 25.5311C30.5512 25.6112 30.2072 25.6734 29.8584 25.7176V25.7142ZM26.1074 25.5389L27.0479 23.1454C27.1796 23.1859 27.3135 23.2207 27.4496 23.2499L27.1394 25.7221C26.7921 25.6749 26.4481 25.6139 26.1074 25.5389ZM24.2308 24.94L25.8976 22.6296C26.0148 22.7015 26.1364 22.7678 26.2591 22.8308L25.2807 25.3209C24.9244 25.2108 24.5752 25.0838 24.233 24.94H24.2308ZM22.3865 23.9444L24.9102 21.8408C25.0073 21.9396 25.1077 22.0352 25.2115 22.1262L23.4476 24.5725C23.0835 24.3828 22.73 24.1731 22.3888 23.9444H22.3865ZM19.1008 20.5384L23.6584 19.6652C23.6964 19.7989 23.7388 19.9315 23.7867 20.0619L20.0391 21.8374C19.6958 21.4276 19.3822 20.9935 19.1008 20.5384ZM17.9561 18.0583L23.4743 18.4078C23.4743 18.5471 23.4855 18.6865 23.5 18.8235L18.6567 19.754C18.3774 19.2091 18.1431 18.6419 17.9561 18.0583ZM22.5204 5.67033C22.8753 6.04118 23.3101 6.32493 23.7912 6.49964C24.0498 6.58775 24.3215 6.63032 24.5945 6.62549C24.8917 6.6228 25.1878 6.58929 25.4781 6.52548C26.2619 6.34034 27.0221 6.06588 27.7441 5.70741C27.3079 6.81653 26.6284 8.16163 25.9066 8.57741C25.8568 8.60674 25.8045 8.63156 25.7504 8.65157C25.3796 8.78484 24.9828 8.82744 24.5925 8.77586C24.2022 8.72428 23.8296 8.58 23.5056 8.35491C23.0879 8.06312 22.7694 7.64909 22.5932 7.16889C22.417 6.6887 22.3916 6.16555 22.5204 5.67033ZM25.2148 3.94653C26.0583 4.10497 26.9854 4.51626 27.6047 4.82641C27.01 5.12307 26.123 5.51862 25.3108 5.6883C24.7953 5.80068 24.3702 5.80068 24.0835 5.69505C23.6194 5.5302 23.2147 5.22973 22.921 4.83203C23.2133 4.43381 23.6163 4.1319 24.079 3.96451C24.3513 3.86112 24.7317 3.85663 25.2148 3.94653ZM34.4205 7.1469C34.1989 7.76926 33.741 8.27751 33.1474 8.55988C32.5538 8.84226 31.8732 8.87564 31.2552 8.6527C31.2027 8.63352 31.152 8.60983 31.1035 8.5819L31.0856 8.57179C30.4006 8.16949 29.7122 6.86148 29.257 5.70291C30.115 6.12319 31.369 6.63111 32.4122 6.63111C32.6774 6.63585 32.9415 6.59519 33.1932 6.51087C33.6828 6.33838 34.1251 6.05193 34.4841 5.67482C34.6114 6.16067 34.5893 6.67403 34.4205 7.1469ZM38.3433 19.754L33.5 18.8235C33.5134 18.6865 33.5223 18.5471 33.5257 18.4078L39.0428 18.0583C38.8562 18.6419 38.6222 19.209 38.3433 19.754ZM39.2838 17.1863L33.471 17.5549C33.4509 17.4155 33.4253 17.2795 33.394 17.1447L39.5605 15.122C39.5328 15.8173 39.4401 16.5085 39.2838 17.1863ZM39.5638 14.2275L33.1363 16.3322C33.0827 16.2041 33.0247 16.0783 32.96 15.9558L39.2448 11.9385C39.4292 12.6884 39.5362 13.4555 39.5638 14.2275ZM30.1563 13.5184L31.1749 9.52246C31.6945 9.67459 32.2433 9.69505 32.7726 9.58202L30.5412 13.6713C30.4151 13.6151 30.2868 13.5634 30.1563 13.5184ZM27.6694 13.3049L26.6061 9.13253C27.1974 8.66618 27.6973 7.86272 28.0799 7.07723V13.2577C27.9371 13.26 27.7999 13.2825 27.6694 13.3049ZM28.9279 7.06487C29.3095 7.85148 29.8104 8.65494 30.404 9.12691L29.3396 13.3049C29.2046 13.2825 29.0673 13.2645 28.9279 13.2532V7.06487ZM32.9132 5.70404C32.4044 5.88383 31.504 5.72876 30.3783 5.26578C30.0202 5.11858 29.6888 4.96013 29.4166 4.81629C29.691 4.6792 30.028 4.52075 30.3906 4.37467C31.5197 3.92518 32.42 3.7701 32.9288 3.95327C33.3922 4.12337 33.7945 4.42946 34.0835 4.83203C33.7895 5.23481 33.3816 5.53876 32.9132 5.70404ZM24.9169 9.65169C25.2241 9.65153 25.5297 9.60842 25.8251 9.52359L26.8426 13.5173C26.7121 13.5634 26.5838 13.6151 26.4577 13.6713L24.2263 9.57752C24.4533 9.62676 24.6848 9.65162 24.9169 9.65169ZM23.8671 16.3322L17.4351 14.2275C17.4642 13.4553 17.5726 12.6882 17.7586 11.9385L24.0445 15.9569C23.9809 16.0783 23.9206 16.2041 23.8671 16.3322ZM23.6049 17.1447C23.5736 17.2795 23.548 17.4166 23.5279 17.5549L17.7162 17.1863C17.56 16.5099 17.4666 15.8203 17.4373 15.1265L23.6049 17.1447ZM24.3223 18.2976C24.3223 17.4653 24.5673 16.6517 25.0264 15.9596C25.4856 15.2675 26.1381 14.7282 26.9016 14.4096C27.6651 14.0911 28.5052 14.0078 29.3157 14.1702C30.1262 14.3325 30.8707 14.7333 31.4551 15.3219C32.0394 15.9104 32.4374 16.6603 32.5986 17.4766C32.7598 18.293 32.6771 19.1391 32.3608 19.9081C32.0446 20.6771 31.509 21.3343 30.8219 21.7968C30.1348 22.2592 29.327 22.506 28.5006 22.506C27.3928 22.5048 26.3307 22.0611 25.5474 21.2721C24.764 20.4831 24.3235 19.4134 24.3223 18.2976ZM33.3405 19.6652L37.8981 20.5406C37.6166 20.9949 37.303 21.4283 36.9598 21.8374L33.2122 20.0619C33.2601 19.9293 33.3037 19.7967 33.3405 19.6652ZM38.9937 11.0844L32.4992 15.2355C32.4156 15.1231 32.3285 15.0175 32.2359 14.9141L37.926 8.80103C37.9996 8.92014 38.071 9.04038 38.1402 9.16287C38.4846 9.77467 38.7704 10.4181 38.9937 11.0844ZM37.444 8.07398L31.6212 14.3275C31.5096 14.241 31.398 14.159 31.2865 14.0825L34.059 9.0033C34.5331 8.65412 34.9068 8.18455 35.142 7.64247C35.3772 7.10039 35.4655 6.50519 35.3978 5.91755C36.1719 6.5417 36.86 7.26688 37.444 8.07398ZM31.2709 1.00012C31.6947 0.849822 32.1513 0.818684 32.5914 0.910045C33.0316 1.00141 33.4387 1.21182 33.7691 1.51867C34.0994 1.82553 34.3405 2.21724 34.4665 2.65172C34.5925 3.0862 34.5986 3.54704 34.4841 3.98474C34.13 3.6129 33.6949 3.329 33.2133 3.15542C32.082 2.74639 30.3381 3.42175 29.2492 3.94765C29.7502 2.69694 30.5278 1.26307 31.2709 1.00012ZM22.584 2.50703C22.6937 2.19888 22.8626 1.91552 23.0811 1.67312C23.2995 1.43073 23.5632 1.23405 23.8572 1.09432C24.1511 0.954597 24.4695 0.874559 24.7941 0.858781C25.1188 0.843002 25.4433 0.891792 25.7493 1.00236C26.2759 1.19227 26.8817 1.99574 27.454 3.26443C27.5656 3.5049 27.6582 3.73527 27.7419 3.94653C27.0859 3.63301 26.1955 3.2633 25.3666 3.1071C24.7373 2.98799 24.2085 3.00485 23.7923 3.15542C23.3108 3.32984 22.8755 3.61361 22.5204 3.98474C22.3924 3.49706 22.4146 2.98172 22.584 2.50703ZM21.6145 5.9153C21.5458 6.5009 21.6321 7.09438 21.8647 7.63553C22.0973 8.17667 22.4679 8.64623 22.9388 8.99656L25.7158 14.0848C25.6042 14.1612 25.4926 14.2432 25.3811 14.3298L19.6531 8.18523C19.6211 8.15008 19.5834 8.1208 19.5415 8.0987C20.132 7.28042 20.8292 6.54601 21.6145 5.9153ZM18.8553 9.16062C18.9234 9.04038 18.9937 8.92239 19.0651 8.80552L24.7686 14.9141C24.6759 15.0175 24.5878 15.1254 24.5041 15.2355L18.0108 11.0844C18.2306 10.4174 18.5134 9.77322 18.8553 9.16062ZM20.6405 22.4959L24.1505 20.8316C24.2196 20.9519 24.2944 21.0688 24.3736 21.1834L21.6803 23.4308C21.3145 23.1415 20.9672 22.8293 20.6405 22.4959ZM27.9896 25.7895L28.2942 23.3567C28.3633 23.3567 28.4314 23.3567 28.5006 23.3567C28.5697 23.3567 28.6389 23.3567 28.7081 23.3567L29.0082 25.7884C28.8386 25.7963 28.6735 25.8008 28.4961 25.8008C28.3187 25.8008 28.158 25.7963 27.9885 25.7895H27.9896ZM35.3231 23.4297L32.6287 21.1823C32.7079 21.0699 32.7826 20.9508 32.8518 20.8305L36.3618 22.4948C36.0345 22.8268 35.6872 23.1383 35.322 23.4275L35.3231 23.4297Z" fill="black"/>
<path d="M4.15487 43.9535V31.3879H3.73983L1.66787e-07 33.8984V44.0692C-0.000146427 44.5632 0.0963427 45.0523 0.283954 45.5087C0.471566 45.9651 0.746623 46.3798 1.09341 46.729C1.4402 47.0783 1.85191 47.3554 2.30504 47.5443C2.75817 47.7333 3.24382 47.8305 3.73425 47.8303L10.1596 47.8652V47.5112L7.6537 47.4752C7.19433 47.4755 6.73941 47.3846 6.31492 47.2078C5.89044 47.0309 5.50471 46.7716 5.17979 46.4445C4.85486 46.1175 4.5971 45.7291 4.42124 45.3017C4.24538 44.8743 4.15487 44.4161 4.15487 43.9535Z" fill="black"/>
<path d="M53.2657 31.5565L49.3407 31.5408L45.4156 31.5565C44.4253 31.5565 43.4754 31.9528 42.7751 32.6581C42.0748 33.3635 41.6814 34.3201 41.6814 35.3176V44.222C41.6813 44.716 41.7777 45.2051 41.9654 45.6615C42.153 46.1179 42.428 46.5326 42.7748 46.8819C43.1216 47.2311 43.5333 47.5082 43.9864 47.6971C44.4396 47.8861 44.9252 47.9833 45.4156 47.9831L49.3407 48L53.2657 47.9831C53.7561 47.9831 54.2417 47.8859 54.6947 47.6968C55.1478 47.5078 55.5595 47.2308 55.9062 46.8815C56.253 46.5323 56.528 46.1177 56.7157 45.6613C56.9034 45.205 57 44.7159 57 44.222V35.3176C56.9997 34.3202 56.6061 33.3637 55.9059 32.6584C55.2057 31.9532 54.256 31.5568 53.2657 31.5565ZM49.3407 31.906C51.272 31.906 52.844 33.5781 52.844 35.5233V44.1063C52.8437 45.0404 52.475 45.9362 51.8191 46.5966C51.1632 47.257 50.2737 47.628 49.3463 47.628H49.334C48.4065 47.628 47.517 47.257 46.8611 46.5966C46.2052 45.9362 45.8366 45.0404 45.8363 44.1063V35.5233C45.8363 33.5781 47.4083 31.906 49.3407 31.906Z" fill="black"/>
<path d="M19.2245 31.5352L14.2675 31.5565C13.2772 31.5568 12.3275 31.9532 11.6273 32.6584C10.927 33.3637 10.5335 34.3202 10.5332 35.3176V45.4896L14.273 48H14.6892V41.0261H21.8442V48H22.1956V34.5153C22.1956 34.1229 22.1187 33.7343 21.9692 33.372C21.8198 33.0096 21.6007 32.6805 21.3247 32.4036C21.0486 32.1267 20.721 31.9075 20.3606 31.7584C20.0002 31.6094 19.6141 31.5335 19.2245 31.5352ZM21.8442 40.6722H14.6892V35.4334C14.6898 34.4997 15.0584 33.6045 15.7141 32.9446C16.3698 32.2846 17.2588 31.9138 18.1858 31.9138L18.8552 31.9082C19.2458 31.9048 19.6333 31.9793 19.9951 32.1275C20.357 32.2757 20.6862 32.4946 20.9636 32.7715C21.2411 33.0485 21.4614 33.378 21.6117 33.7411C21.7621 34.1043 21.8396 34.4938 21.8397 34.8872L21.8442 40.6722Z" fill="black"/>
<path d="M31.0376 44.2366L39.8192 32.1206V31.5408H23.1953V31.8925H30.6448C31.0383 31.8919 31.4242 32.0011 31.7598 32.2078C32.0954 32.4146 32.3676 32.7108 32.5464 33.0639C32.7251 33.4169 32.8033 33.8128 32.7723 34.2078C32.7413 34.6028 32.6024 34.9815 32.3708 35.3019L23.6182 47.3786V48H40.2421V47.646H32.7669C32.3732 47.6472 31.9869 47.5385 31.6508 47.332C31.3147 47.1255 31.0419 46.8293 30.8628 46.4762C30.6837 46.123 30.6052 45.7269 30.6361 45.3315C30.6669 44.9362 30.8059 44.5572 31.0376 44.2366Z" fill="black"/>
</svg>
