<svg width="53" height="53" viewBox="0 0 53 53" fill="none" xmlns="http://www.w3.org/2000/svg">
<path d="M48.0311 24.2917V37.5417C48.1608 38.6605 48.0358 39.7943 47.6655 40.858C47.2952 41.9217 46.6891 42.888 45.8927 43.6845C45.0962 44.4809 44.13 45.087 43.0662 45.4573C42.0025 45.8276 40.8687 45.9526 39.7499 45.8229H13.2499C12.131 45.9526 10.9973 45.8276 9.93354 45.4573C8.86979 45.087 7.90355 44.4809 7.10709 43.6845C6.31063 42.888 5.70457 41.9217 5.33426 40.858C4.96394 39.7943 4.83894 38.6605 4.96863 37.5417V15.4583C4.83894 14.3395 4.96394 13.2057 5.33426 12.142C5.70457 11.0783 6.31063 10.112 7.10709 9.31555C7.90355 8.51909 8.86979 7.91303 9.93354 7.54271C10.9973 7.17239 12.131 7.0474 13.2499 7.17708H28.7082C29.1475 7.17708 29.5687 7.35158 29.8794 7.66219C30.19 7.97279 30.3645 8.39407 30.3645 8.83333C30.3645 9.2726 30.19 9.69387 29.8794 10.0045C29.5687 10.3151 29.1475 10.4896 28.7082 10.4896H13.2499C9.76734 10.4896 8.28113 11.9758 8.28113 15.4583V35.8854L13.8903 30.2762C14.3072 29.8625 14.8708 29.6303 15.4582 29.6303C16.0456 29.6303 16.6092 29.8625 17.0261 30.2762L19.102 32.3521C19.3084 32.5544 19.5859 32.6677 19.8749 32.6677C20.1639 32.6677 20.4414 32.5544 20.6478 32.3521L31.557 21.4429C31.9739 21.0292 32.5375 20.797 33.1249 20.797C33.7123 20.797 34.2758 21.0292 34.6928 21.4429L44.7186 31.4688V24.2917C44.7186 23.8524 44.8931 23.4311 45.2037 23.1205C45.5143 22.8099 45.9356 22.6354 46.3749 22.6354C46.8141 22.6354 47.2354 22.8099 47.546 23.1205C47.8566 23.4311 48.0311 23.8524 48.0311 24.2917ZM17.6511 17.1146C16.9179 17.1166 16.2155 17.4096 15.6981 17.9291C15.1808 18.4487 14.8908 19.1523 14.8918 19.8855C14.8928 20.6187 15.1848 21.3215 15.7036 21.8396C16.2224 22.3577 16.9256 22.6487 17.6588 22.6487C18.392 22.6487 19.0952 22.3577 19.614 21.8396C20.1328 21.3215 20.4248 20.6187 20.4259 19.8855C20.4269 19.1523 20.1369 18.4487 19.6195 17.9291C19.1021 17.4096 18.3997 17.1166 17.6665 17.1146H17.6511ZM37.5415 12.6979H40.302V15.4583C40.302 15.8976 40.4765 16.3189 40.7871 16.6295C41.0977 16.9401 41.5189 17.1146 41.9582 17.1146C42.3975 17.1146 42.8187 16.9401 43.1294 16.6295C43.44 16.3189 43.6145 15.8976 43.6145 15.4583V12.6979H46.3749C46.8141 12.6979 47.2354 12.5234 47.546 12.2128C47.8566 11.9022 48.0311 11.4809 48.0311 11.0417C48.0311 10.6024 47.8566 10.1811 47.546 9.87052C47.2354 9.55991 46.8141 9.38542 46.3749 9.38542H43.6145V6.625C43.6145 6.18574 43.44 5.76446 43.1294 5.45385C42.8187 5.14325 42.3975 4.96875 41.9582 4.96875C41.5189 4.96875 41.0977 5.14325 40.7871 5.45385C40.4765 5.76446 40.302 6.18574 40.302 6.625V9.38542H37.5415C37.1023 9.38542 36.681 9.55991 36.3704 9.87052C36.0598 10.1811 35.8853 10.6024 35.8853 11.0417C35.8853 11.4809 36.0598 11.9022 36.3704 12.2128C36.681 12.5234 37.1023 12.6979 37.5415 12.6979Z" fill="#BBBBBB"/>
</svg>
