<svg width="18" height="18" viewBox="0 0 18 18" fill="none" xmlns="http://www.w3.org/2000/svg">
<path d="M11.4993 17.9587H6.49935C1.97435 17.9587 0.0410156 16.0253 0.0410156 11.5003V6.50033C0.0410156 1.97533 1.97435 0.0419922 6.49935 0.0419922H11.4993C16.0243 0.0419922 17.9577 1.97533 17.9577 6.50033V11.5003C17.9577 16.0253 16.0243 17.9587 11.4993 17.9587ZM6.49935 1.29199C2.65768 1.29199 1.29102 2.65866 1.29102 6.50033V11.5003C1.29102 15.342 2.65768 16.7087 6.49935 16.7087H11.4993C15.341 16.7087 16.7077 15.342 16.7077 11.5003V6.50033C16.7077 2.65866 15.341 1.29199 11.4993 1.29199H6.49935Z" fill="#E21B33"/>
<path d="M5.10689 11.7006C4.97355 11.7006 4.84022 11.6589 4.72355 11.5672C4.65844 11.5175 4.60377 11.4553 4.56266 11.3844C4.52156 11.3135 4.49482 11.2352 4.48399 11.1539C4.47316 11.0727 4.47843 10.9901 4.49952 10.9109C4.52061 10.8316 4.55709 10.7574 4.60689 10.6922L6.59022 8.11724C6.83189 7.80891 7.17355 7.60891 7.56522 7.55891C7.94855 7.50891 8.34022 7.61725 8.64855 7.85891L10.1736 9.05891C10.2319 9.10891 10.2902 9.10891 10.3319 9.10058C10.3652 9.10058 10.4236 9.08391 10.4736 9.01725L12.3986 6.53391C12.4483 6.46859 12.5107 6.41387 12.5819 6.37296C12.6531 6.33205 12.7318 6.30578 12.8133 6.29569C12.8948 6.2856 12.9775 6.29189 13.0565 6.31419C13.1356 6.3365 13.2093 6.37437 13.2736 6.42558C13.5486 6.63391 13.5986 7.02558 13.3819 7.30058L11.4569 9.78391C11.2152 10.0922 10.8736 10.2922 10.4819 10.3339C10.0902 10.3839 9.70689 10.2756 9.39855 10.0339L7.87355 8.83391C7.8522 8.81517 7.82677 8.80165 7.7993 8.79442C7.77182 8.78719 7.74304 8.78645 7.71522 8.79224C7.68189 8.79224 7.62355 8.80891 7.57355 8.87558L5.59022 11.4506C5.48189 11.6172 5.29855 11.7006 5.10689 11.7006Z" fill="#E21B33"/>
</svg>
