<svg width="19" height="14" viewBox="0 0 19 14" fill="none" xmlns="http://www.w3.org/2000/svg">
<path d="M14.9062 6.08142C16.0688 5.91809 16.9638 4.92142 16.9663 3.71392C16.9663 2.52392 16.0988 1.53725 14.9613 1.35059" stroke="#E21B33" stroke-linecap="round" stroke-linejoin="round"/>
<path d="M16.4414 8.87598C17.5672 9.04431 18.3531 9.43848 18.3531 10.251C18.3531 10.8101 17.9831 11.1735 17.3847 11.4018" stroke="#E21B33" stroke-linecap="round" stroke-linejoin="round"/>
<path fill-rule="evenodd" clip-rule="evenodd" d="M9.90724 9.2207C7.22891 9.2207 4.94141 9.62654 4.94141 11.2474C4.94141 12.8674 7.21474 13.2849 9.90724 13.2849C12.5856 13.2849 14.8722 12.8832 14.8722 11.2615C14.8722 9.63987 12.5997 9.2207 9.90724 9.2207Z" stroke="#E21B33" stroke-linecap="round" stroke-linejoin="round"/>
<path fill-rule="evenodd" clip-rule="evenodd" d="M9.90518 6.90699C11.6627 6.90699 13.0877 5.48283 13.0877 3.72449C13.0877 1.96699 11.6627 0.541992 9.90518 0.541992C8.14768 0.541992 6.72268 1.96699 6.72268 3.72449C6.71601 5.47616 8.13018 6.90116 9.88185 6.90699H9.90518Z" stroke="#E21B33" stroke-linecap="round" stroke-linejoin="round"/>
<path d="M4.9057 6.08142C3.74237 5.91809 2.8482 4.92142 2.8457 3.71392C2.8457 2.52392 3.7132 1.53725 4.8507 1.35059" stroke="#E21B33" stroke-linecap="round" stroke-linejoin="round"/>
<path d="M3.37065 8.87598C2.24482 9.04431 1.45898 9.43848 1.45898 10.251C1.45898 10.8101 1.82898 11.1735 2.42732 11.4018" stroke="#E21B33" stroke-linecap="round" stroke-linejoin="round"/>
</svg>
