<svg width="20" height="20" viewBox="0 0 20 20" fill="none" xmlns="http://www.w3.org/2000/svg">
<path d="M16.1032 7.89017C16.1032 7.89017 15.6507 13.5027 15.3882 15.8668C15.2632 16.996 14.5657 17.6577 13.4232 17.6785C11.249 17.7177 9.07234 17.7202 6.89901 17.6743C5.79984 17.6518 5.11401 16.9818 4.99151 15.8727C4.72734 13.4877 4.27734 7.89017 4.27734 7.89017" stroke="white" stroke-width="1.5" stroke-linecap="round" stroke-linejoin="round"/>
<path d="M17.2567 5.19976H3.125" stroke="white" stroke-width="1.5" stroke-linecap="round" stroke-linejoin="round"/>
<path d="M14.5335 5.19975C13.8793 5.19975 13.316 4.73725 13.1877 4.09642L12.9852 3.08308C12.8602 2.61558 12.4368 2.29225 11.9543 2.29225H8.42682C7.94432 2.29225 7.52099 2.61558 7.39599 3.08308L7.19349 4.09642C7.06516 4.73725 6.50182 5.19975 5.84766 5.19975" stroke="white" stroke-width="1.5" stroke-linecap="round" stroke-linejoin="round"/>
</svg>
