<svg width="20" height="20" viewBox="0 0 20 20" fill="none" xmlns="http://www.w3.org/2000/svg">
<path d="M16.1051 7.89014C16.1051 7.89014 15.6526 13.5026 15.3901 15.8668C15.2651 16.996 14.5676 17.6576 13.4251 17.6785C11.251 17.7176 9.0743 17.7201 6.90096 17.6743C5.8018 17.6518 5.11596 16.9818 4.99346 15.8726C4.7293 13.4876 4.2793 7.89014 4.2793 7.89014" stroke="#E21B33" stroke-linecap="round" stroke-linejoin="round"/>
<path d="M17.2567 5.19987H3.125" stroke="#E21B33" stroke-linecap="round" stroke-linejoin="round"/>
<path d="M14.5354 5.19974C13.8813 5.19974 13.3179 4.73724 13.1896 4.0964L12.9871 3.08307C12.8621 2.61557 12.4388 2.29224 11.9563 2.29224H8.42878C7.94628 2.29224 7.52294 2.61557 7.39794 3.08307L7.19544 4.0964C7.06711 4.73724 6.50378 5.19974 5.84961 5.19974" stroke="#E21B33" stroke-linecap="round" stroke-linejoin="round"/>
</svg>
