<svg width="40" height="40" viewBox="0 0 40 40" fill="none" xmlns="http://www.w3.org/2000/svg">
<circle cx="20" cy="20" r="20" fill="#FCE9E9"/>
<path d="M27.7094 17.3347C27.7094 17.3347 27.1378 24.4242 26.8062 27.4105C26.6483 28.8368 25.7673 29.6726 24.3241 29.6989C21.5778 29.7484 18.8283 29.7516 16.0831 29.6937C14.6946 29.6652 13.8283 28.8189 13.6736 27.4179C13.3399 24.4052 12.7715 17.3347 12.7715 17.3347" stroke="#E42525" stroke-width="1.5" stroke-linecap="round" stroke-linejoin="round"/>
<path d="M29.166 13.9362H11.3154" stroke="#E42525" stroke-width="1.5" stroke-linecap="round" stroke-linejoin="round"/>
<path d="M25.7265 13.9363C24.9001 13.9363 24.1886 13.3521 24.0265 12.5426L23.7707 11.2626C23.6128 10.6721 23.078 10.2637 22.4686 10.2637H18.0128C17.4033 10.2637 16.8686 10.6721 16.7107 11.2626L16.4549 12.5426C16.2928 13.3521 15.5812 13.9363 14.7549 13.9363" stroke="#E42525" stroke-width="1.5" stroke-linecap="round" stroke-linejoin="round"/>
</svg>
