<svg width="40" height="40" viewBox="0 0 40 40" fill="none" xmlns="http://www.w3.org/2000/svg">
<circle cx="20" cy="20" r="20" fill="#ECF5F1"/>
<path d="M19.4658 10.304H15.53C12.2931 10.304 10.2637 12.5955 10.2637 15.8397V24.5913C10.2637 27.8355 12.2837 30.1271 15.53 30.1271H24.8184C28.0658 30.1271 30.0858 27.8355 30.0858 24.5913V20.3513" stroke="#3D9970" stroke-width="1.5" stroke-linecap="round" stroke-linejoin="round"/>
<path fill-rule="evenodd" clip-rule="evenodd" d="M16.6609 18.8638L24.5272 10.9975C25.5072 10.0186 27.0957 10.0186 28.0757 10.9975L29.3567 12.2786C30.3367 13.2586 30.3367 14.8481 29.3567 15.827L21.4525 23.7312C21.0241 24.1596 20.443 24.4007 19.8367 24.4007H15.8936L15.9925 20.4217C16.0072 19.8365 16.2462 19.2786 16.6609 18.8638Z" stroke="#3D9970" stroke-width="1.5" stroke-linecap="round" stroke-linejoin="round"/>
<path d="M23.332 12.2129L28.1383 17.0192" stroke="#3D9970" stroke-width="1.5" stroke-linecap="round" stroke-linejoin="round"/>
</svg>
