<svg width="16" height="16" viewBox="0 0 16 16" fill="none" xmlns="http://www.w3.org/2000/svg">
<path d="M7.66198 1.85938H5.16932C3.11932 1.85938 1.83398 3.31071 1.83398 5.36537V10.908C1.83398 12.9627 3.11332 14.414 5.16932 14.414H11.052C13.1087 14.414 14.388 12.9627 14.388 10.908V8.22271" stroke="white" stroke-width="1.5" stroke-linecap="round" stroke-linejoin="round"/>
<path fill-rule="evenodd" clip-rule="evenodd" d="M5.88541 7.28098L10.8674 2.29898C11.4881 1.67898 12.4941 1.67898 13.1147 2.29898L13.9261 3.11032C14.5467 3.73098 14.5467 4.73765 13.9261 5.35765L8.92008 10.3637C8.64875 10.635 8.28075 10.7877 7.89675 10.7877H5.39941L5.46208 8.26765C5.47141 7.89698 5.62275 7.54365 5.88541 7.28098Z" stroke="white" stroke-width="1.5" stroke-linecap="round" stroke-linejoin="round"/>
<path d="M10.1104 3.06836L13.1544 6.11236" stroke="white" stroke-width="1.5" stroke-linecap="round" stroke-linejoin="round"/>
</svg>
