<svg width="78" height="79" viewBox="0 0 78 79" fill="none" xmlns="http://www.w3.org/2000/svg">
<path d="M26.7918 22.8123L35.0161 14.588V58.0939C35.0161 59.1506 35.4359 60.1641 36.1831 60.9113C36.9303 61.6585 37.9437 62.0783 39.0005 62.0783C40.0572 62.0783 41.0706 61.6585 41.8178 60.9113C42.565 60.1641 42.9848 59.1506 42.9848 58.0939V14.588L51.2091 22.8123C51.5787 23.1839 52.018 23.4789 52.5018 23.6805C52.9857 23.8821 53.5045 23.9862 54.0287 23.9869C54.5528 23.9876 55.072 23.8849 55.5564 23.6847C56.0407 23.4844 56.4809 23.1906 56.8515 22.8199C57.2221 22.4493 57.516 22.0092 57.7162 21.5248C57.9165 21.0404 58.0192 20.5213 58.0185 19.9971C58.0178 19.473 57.9136 18.9541 57.7121 18.4703C57.5105 17.9865 57.2154 17.5471 56.8438 17.1775L41.8179 2.15144C41.4479 1.78144 41.0087 1.48793 40.5253 1.28769C40.0418 1.08744 39.5237 0.984375 39.0005 0.984375C38.4772 0.984375 37.9591 1.08744 37.4756 1.28769C36.9922 1.48793 36.553 1.78144 36.183 2.15144L21.1571 17.1775C20.7855 17.5471 20.4904 17.9865 20.2888 18.4703C20.0873 18.9541 19.9831 19.473 19.9824 19.9971C19.9817 20.5213 20.0844 21.0404 20.2847 21.5248C20.4849 22.0092 20.7788 22.4493 21.1494 22.8199C21.52 23.1906 21.9602 23.4844 22.4445 23.6847C22.9289 23.8849 23.4481 23.9876 23.9722 23.9869C24.4964 23.9862 25.0152 23.8821 25.4991 23.6805C25.9829 23.4789 26.4222 23.1839 26.7918 22.8123Z" fill="#E21B33"/>
<path d="M73.5312 35.5156C72.4745 35.5156 71.4611 35.9354 70.7139 36.6826C69.9667 37.4298 69.5469 38.4433 69.5469 39.5V70.0469H8.45312V39.5C8.45312 38.4433 8.03334 37.4298 7.28613 36.6826C6.53891 35.9354 5.52547 35.5156 4.46875 35.5156C3.41203 35.5156 2.39859 35.9354 1.65137 36.6826C0.904156 37.4298 0.484375 38.4433 0.484375 39.5V71.375C0.484375 73.1362 1.18401 74.8253 2.42937 76.0706C3.67473 77.316 5.3638 78.0156 7.125 78.0156H70.875C72.6362 78.0156 74.3253 77.316 75.5706 76.0706C76.816 74.8253 77.5156 73.1362 77.5156 71.375V39.5C77.5156 38.4433 77.0958 37.4298 76.3486 36.6826C75.6014 35.9354 74.588 35.5156 73.5312 35.5156Z" fill="#E21B33"/>
</svg>
