<svg width="17" height="18" viewBox="0 0 17 18" fill="none" xmlns="http://www.w3.org/2000/svg">
<path d="M13.6887 7.20605C13.6887 7.20605 13.3041 11.9767 13.0809 13.9862C12.9747 14.946 12.3818 15.5084 11.4107 15.5261C9.56264 15.5594 7.71247 15.5616 5.86514 15.5226C4.93084 15.5035 4.34789 14.934 4.24376 13.9912C4.01922 11.9639 3.63672 7.20605 3.63672 7.20605" stroke="#E21B33" stroke-linecap="round" stroke-linejoin="round"/>
<path d="M14.6682 4.9196H2.65625" stroke="#E21B33" stroke-linecap="round" stroke-linejoin="round"/>
<path d="M12.3537 4.91962C11.7976 4.91962 11.3188 4.52649 11.2097 3.98178L11.0376 3.12045C10.9313 2.72308 10.5715 2.44824 10.1614 2.44824H7.16299C6.75287 2.44824 6.39304 2.72308 6.28679 3.12045L6.11466 3.98178C6.00558 4.52649 5.52674 4.91962 4.9707 4.91962" stroke="#E21B33" stroke-width="1.5" stroke-linecap="round" stroke-linejoin="round"/>
</svg>
