<svg width="24" height="24" viewBox="0 0 24 24" fill="none" xmlns="http://www.w3.org/2000/svg">
<path d="M9.94944 18.2922L7.12141 21.1202C5.94896 22.2927 4.05028 22.2927 2.87882 21.1205C1.70713 19.9488 1.70713 18.0499 2.87859 16.8785L8.53564 11.2214C9.7071 10.0499 11.606 10.0499 12.7774 11.2214C13.1679 11.6119 13.8011 11.6119 14.1917 11.2214C14.5822 10.8309 14.5822 10.1977 14.1917 9.80718C12.2391 7.85464 9.07395 7.85464 7.12141 9.80718L1.46441 15.4642C-0.488136 17.4167 -0.488136 20.5819 1.46441 22.5344C3.41672 24.488 6.58211 24.488 8.53568 22.5344L11.3637 19.7064C11.7542 19.3159 11.7542 18.6827 11.3637 18.2922C10.9732 17.9017 10.34 17.9017 9.94944 18.2922Z" fill="#3D9970"/>
<path d="M22.5354 1.46441C20.5828 -0.488136 17.4166 -0.488136 15.4641 1.46441L12.0711 4.85743C11.6806 5.24794 11.6806 5.88114 12.0711 6.27165C12.4616 6.66217 13.0948 6.66217 13.4853 6.27165L16.8783 2.87863C18.0498 1.70713 19.9496 1.70713 21.1211 2.87863C22.2926 4.05009 22.2926 5.94896 21.1211 7.12042L14.8991 13.3425C13.7276 14.514 11.8288 14.514 10.6573 13.3425C10.2668 12.952 9.6336 12.952 9.24308 13.3425C8.85257 13.733 8.85257 14.3662 9.24308 14.7567C11.1956 16.7093 14.3608 16.7093 16.3133 14.7567L22.5354 8.5347C24.4879 6.58216 24.4879 3.41695 22.5354 1.46441Z" fill="#3D9970"/>
</svg>
