<svg width="20" height="20" viewBox="0 0 20 20" fill="none" xmlns="http://www.w3.org/2000/svg">
<g clip-path="url(#clip0_882_6755)">
<path d="M4.375 15C4.20924 15 4.05027 14.9342 3.93306 14.8169C3.81585 14.6997 3.75 14.5408 3.75 14.375C3.75 14.2092 3.81585 14.0503 3.93306 13.9331C4.05027 13.8158 4.20924 13.75 4.375 13.75H9.375C9.54076 13.75 9.69973 13.8158 9.81694 13.9331C9.93415 14.0503 10 14.2092 10 14.375C10 14.5408 9.93415 14.6997 9.81694 14.8169C9.69973 14.9342 9.54076 15 9.375 15H4.375ZM13.5433 14.8417C13.5331 14.8328 13.5231 14.8236 13.5133 14.8142L11.85 13.15C11.7627 13.0626 11.7033 12.9513 11.6792 12.8301C11.6551 12.7089 11.6675 12.5834 11.7148 12.4692C11.762 12.3551 11.842 12.2575 11.9447 12.1888C12.0474 12.1202 12.1681 12.0834 12.2917 12.0833H13.3333V5.625C13.3333 5.45924 13.3992 5.30027 13.5164 5.18306C13.6336 5.06585 13.7926 5 13.9583 5C14.1241 5 14.2831 5.06585 14.4003 5.18306C14.5175 5.30027 14.5833 5.45924 14.5833 5.625V12.0833H15.625C15.7485 12.0834 15.8693 12.1202 15.9719 12.1888C16.0746 12.2575 16.1546 12.3551 16.2019 12.4692C16.2492 12.5834 16.2615 12.7089 16.2375 12.8301C16.2134 12.9513 16.154 13.0626 16.0667 13.15L14.4 14.8167C14.2834 14.9337 14.1252 14.9996 13.96 15L13.5133 14.8142L13.9583 15C13.8052 15 13.6575 14.9437 13.5433 14.8417ZM3.75 10C3.75 10.345 4.03 10.625 4.375 10.625H9.375C9.54076 10.625 9.69973 10.5592 9.81694 10.4419C9.93415 10.3247 10 10.1658 10 10C10 9.83424 9.93415 9.67527 9.81694 9.55806C9.69973 9.44085 9.54076 9.375 9.375 9.375H4.375C4.20924 9.375 4.05027 9.44085 3.93306 9.55806C3.81585 9.67527 3.75 9.83424 3.75 10ZM4.375 6.25C4.20924 6.25 4.05027 6.18415 3.93306 6.06694C3.81585 5.94973 3.75 5.79076 3.75 5.625C3.75 5.45924 3.81585 5.30027 3.93306 5.18306C4.05027 5.06585 4.20924 5 4.375 5H9.375C9.54076 5 9.69973 5.06585 9.81694 5.18306C9.93415 5.30027 10 5.45924 10 5.625C10 5.79076 9.93415 5.94973 9.81694 6.06694C9.69973 6.18415 9.54076 6.25 9.375 6.25H4.375Z" fill="#E21B33"/>
</g>
<defs>
<clipPath id="clip0_882_6755">
<rect width="20" height="20" fill="white"/>
</clipPath>
</defs>
</svg>
