<svg width="59" height="59" viewBox="0 0 59 59" fill="none" xmlns="http://www.w3.org/2000/svg">
<path d="M59 29.5C59 13.2076 45.7924 0 29.5 0C13.2076 0 0 13.2076 0 29.5C0 45.7924 13.2076 59 29.5 59C45.7924 59 59 45.7924 59 29.5Z" fill="#001F3F"/>
<path fill-rule="evenodd" clip-rule="evenodd" d="M23.3712 17.4128C19.7511 17.4128 17.4122 19.895 17.4122 23.7244V35.2631C17.4122 36.3377 17.6117 37.2972 17.9531 38.1274C17.9678 38.1098 18.2892 37.7181 18.7086 37.207C19.5282 36.2082 20.7219 34.7536 20.7303 34.7461C21.7024 33.6364 23.5271 31.9816 25.9223 32.9831C26.4471 33.2008 26.9136 33.4989 27.3431 33.7733C27.3849 33.8 27.4264 33.8265 27.4675 33.8527C28.2724 34.3907 28.7458 34.6436 29.2375 34.6014C29.4412 34.5733 29.6322 34.5129 29.8135 34.4006C30.4971 33.9791 32.2694 31.4679 32.8 30.716C32.8779 30.6057 32.929 30.5332 32.9461 30.5108C34.4773 28.516 36.8373 27.9822 38.8039 29.1622C39.068 29.3195 40.9602 30.6414 41.5868 31.1724V23.7244C41.5868 19.895 39.2478 17.4128 35.6151 17.4128H23.3712ZM35.6151 15.4531C40.359 15.4531 43.5464 18.7712 43.5464 23.7244V35.2631C43.5464 35.3877 43.5333 35.5045 43.5203 35.6212C43.5111 35.7033 43.5019 35.7853 43.4972 35.8699C43.4942 35.9211 43.4928 35.9723 43.4913 36.0235C43.4894 36.0917 43.4874 36.1599 43.4818 36.2281C43.479 36.2548 43.4737 36.2805 43.4684 36.3061C43.4632 36.3318 43.4579 36.3574 43.4551 36.3841C43.4087 36.8252 43.3371 37.2466 43.2374 37.6554C43.2138 37.7575 43.1866 37.856 43.1591 37.9553L43.1531 37.9771C43.0407 38.3732 42.9086 38.7511 42.7499 39.1121C42.7221 39.1728 42.6928 39.232 42.6634 39.2912C42.6439 39.3306 42.6243 39.37 42.6052 39.4099C42.4338 39.7541 42.2484 40.0842 42.0335 40.3905C41.9937 40.4471 41.9514 40.5003 41.909 40.5535C41.881 40.5887 41.853 40.6239 41.8256 40.6602C41.6022 40.9496 41.369 41.2263 41.1049 41.4777C41.0522 41.5279 40.9952 41.5738 40.9382 41.6196C40.9026 41.6483 40.867 41.677 40.8324 41.7067C40.5613 41.9399 40.2846 42.1633 39.9797 42.3543C39.9132 42.3961 39.8425 42.4312 39.7721 42.4661C39.7265 42.4887 39.6811 42.5113 39.637 42.5355C39.3265 42.7069 39.0132 42.8741 38.6719 43.0033C38.5898 43.0345 38.5024 43.0571 38.4147 43.0797C38.3525 43.0958 38.2901 43.1119 38.2294 43.1311C38.199 43.1406 38.1686 43.15 38.1383 43.1594C37.8334 43.2543 37.5294 43.3489 37.2011 43.4051C37.0109 43.4384 36.809 43.4512 36.607 43.464C36.5196 43.4696 36.4321 43.4751 36.3456 43.4823C36.2526 43.4893 36.1613 43.5005 36.07 43.5118C35.9215 43.53 35.7726 43.5484 35.6151 43.5484H23.3712C22.843 43.5484 22.3387 43.495 21.8513 43.4149C21.833 43.4121 21.8161 43.4093 21.7993 43.4065C19.8986 43.0792 18.3211 42.1619 17.2156 40.7782C17.2079 40.7782 17.2049 40.773 17.2008 40.7661C17.1982 40.7616 17.1952 40.7565 17.1903 40.7515C16.0791 39.3523 15.4512 37.4714 15.4512 35.2631V23.7244C15.4512 18.7712 18.6414 15.4531 23.3712 15.4531H35.6151ZM28.0949 24.6045C28.0949 26.5079 26.5023 28.0954 24.5898 28.0954C22.9087 28.0954 21.4753 26.8672 21.1541 25.2769C21.101 25.0383 21.0711 24.793 21.0711 24.5395C21.0711 22.6225 22.6283 21.0716 24.553 21.0716C25.5331 21.0716 26.4206 21.4837 27.0563 22.1412C27.6947 22.7757 28.0949 23.6501 28.0949 24.6045Z" fill="#E6E9EC"/>
</svg>
