<svg width="18" height="18" viewBox="0 0 18 18" fill="none" xmlns="http://www.w3.org/2000/svg">
<path fill-rule="evenodd" clip-rule="evenodd" d="M9 16.5C4.85775 16.5 1.5 13.1422 1.5 9C1.5 4.85775 4.85775 1.5 9 1.5C13.1422 1.5 16.5 4.85775 16.5 9C16.5 13.1422 13.1422 16.5 9 16.5ZM9 15.6C10.7504 15.6 12.4292 14.9046 13.6669 13.6669C14.9046 12.4292 15.6 10.7504 15.6 9C15.6 7.24957 14.9046 5.57084 13.6669 4.33309C12.4292 3.09535 10.7504 2.4 9 2.4C7.24957 2.4 5.57084 3.09535 4.33309 4.33309C3.09535 5.57084 2.4 7.24957 2.4 9C2.4 10.7504 3.09535 12.4292 4.33309 13.6669C5.57084 14.9046 7.24957 15.6 9 15.6ZM8.505 4.82325H9.495L9.42825 10.1182H8.5725L8.5065 4.82325H8.505ZM9 12.8047C8.91748 12.8058 8.83559 12.7902 8.75916 12.7591C8.68272 12.728 8.61329 12.6819 8.55493 12.6236C8.49658 12.5652 8.45049 12.4958 8.41937 12.4193C8.38825 12.3429 8.37274 12.261 8.37375 12.1785C8.37222 12.0958 8.38738 12.0137 8.41831 11.937C8.44924 11.8604 8.49531 11.7907 8.55377 11.7323C8.61223 11.6738 8.68188 11.6277 8.75855 11.5968C8.83522 11.5659 8.91734 11.5507 9 11.5522C9.357 11.5522 9.62625 11.8222 9.62625 12.1785C9.62778 12.2612 9.61262 12.3433 9.58169 12.4199C9.55076 12.4966 9.50468 12.5663 9.44622 12.6247C9.38776 12.6832 9.31812 12.7293 9.24145 12.7602C9.16478 12.7911 9.08266 12.8063 9 12.8047Z" fill="#88101F"/>
</svg>
